<?xml version="1.0" standalone="no"?><!DOCTYPE svg PUBLIC "-//W3C//DTD SVG 1.1//EN" "http://www.w3.org/Graphics/SVG/1.1/DTD/svg11.dtd"><svg t="1547923579811" class="icon" style="" viewBox="0 0 1024 1024" version="1.1" xmlns="http://www.w3.org/2000/svg" p-id="25307" xmlns:xlink="http://www.w3.org/1999/xlink" width="300" height="300"><defs><style type="text/css"></style></defs><path d="M668.705895 498.517996 548.192485 498.517996 548.192485 377.999552c0-18.156907-14.714414-32.873335-32.866287-32.873335-18.15892 0-32.875349 14.716428-32.875349 32.873335l0 120.517437L361.93744 498.516989c-18.149859 0-32.866287 14.714414-32.866287 32.866287s14.716428 32.866287 32.866287 32.866287l120.51341 0 0 120.522472c0 18.151872 14.716428 32.866287 32.875349 32.866287 18.151872 0 32.866287-14.714414 32.866287-32.866287l0-120.522472 120.51341 0c18.160934 0 32.875349-14.714414 32.875349-32.866287S686.866829 498.517996 668.705895 498.517996zM504.3654 16.446233c-278.343477 0-503.986313 225.639815-503.986313 503.979265 0 278.346497 225.642836 503.986313 503.986313 503.986313s503.984299-225.639815 503.984299-503.986313C1008.348692 242.086048 782.708877 16.446233 504.3654 16.446233zM504.3654 958.679237c-242.034698 0-438.242664-196.216021-438.242664-438.253739S262.329695 82.18082 504.3654 82.18082c242.04376 0 438.251726 196.207966 438.251726 438.244678S746.409159 958.679237 504.3654 958.679237z" p-id="25308" fill="#f82e2e"></path></svg>